<?xml version="1.0" encoding="utf-8"?>
<!-- Generator: Adobe Illustrator 23.0.1, SVG Export Plug-In . SVG Version: 6.00 Build 0)  -->
<svg version="1.1" id="white_logo" xmlns="http://www.w3.org/2000/svg" xmlns:xlink="http://www.w3.org/1999/xlink" x="0px" y="0px"
	 viewBox="0 0 233 70" style="enable-background:new 0 0 233 70;" xml:space="preserve">
<style type="text/css">
	.st0{fill:#801619;}
</style>
<path class="st0" d="M44,55.8C37,60.9,26.9,67,17.9,67S1.6,60.7,1.6,51.1c0-5.2,1.9-10.4,4.1-15c4.3-9.2,11.4-17.2,18.7-23.9
	C30.1,7.3,37,3.6,44.3,1.6c1.9-0.3,3.8-0.6,6-0.6c2.5,0,5.2,0.3,7.6,1.4l3.3,2C61.8,5,62.6,5,63.4,5c2.2,0,4.4-1.4,6.3-3.2l0.8,0.9
	c-4.4,3.2-6.3,6.6-8.2,12.1l-0.8-0.6c0.3-1.2,0.6-2.3,0.6-3.7c0-6.1-7.1-8.6-12-8.6c-3.5,0-7.4,1.2-10.6,2.9
	C28,10.5,18.7,21.5,13,33.9c-2.7,5.8-4.6,12.3-4.6,18.9c0,7.5,4.1,13,11.5,13c8.5,0,17.7-6.8,24.5-11.1c1.1-2.6,2.2-4.9,3.8-7.2
	c4.8-7,13-14.2,21.8-14.2c4.6,0,6.8,2.3,6.8,7.2l3-5.5h5.4L72.4,58.4c-0.5,1.2-1.1,2.3-1.1,3.5c0,1.4,1.4,2.3,2.5,2.3
	c3.3,0,6.8-2.9,9-4.9c6-4.6,11.7-10.4,15.3-17.6l3.5-6.6h5.7l-1.6,2.9c3-1.7,6.3-3.2,9.5-3.2c1.9,0,3.8,0.9,3.8,3.2
	c0,1.4-0.8,2.9-1.9,3.8c0.3,0.3,0.5,0.3,0.8,0.3c0.8,0,1.9-0.6,2.7-1.2c4.9-3.2,9.3-7.8,12.3-13l4.1-7.2h5.2l-6.8,12.7h8.2l-0.5,1.2
	h-7.9l-13.4,24.2c-0.5,0.9-1.1,2-1.1,3.2s1.6,2,2.7,2c2.5,0,4.6-1.7,6.5-3.2c3.8-2.9,7.1-5.8,10.1-9.2c2.5-2.3,4.6-4.9,6.5-7.5
	c0.8-1.7,1.9-3.2,2.7-4.9l2.5-4h5.4l-13.4,24.2c-0.5,0.9-0.8,2-0.8,2.9c0,1.2,0.8,2,1.9,2c3.3,0,6.5-2.6,9-4.9l9.5-8.6
	c5.5-6.3,14.2-16.7,22.9-16.7c2.7,0,6,1.4,6,4.9c0,2.6-1.6,4.9-3,6.6c-3.5,4-8.7,6.3-13.6,7.8c-2.5,0.9-4.9,0.9-7.4,0.9
	c-0.8,2-1.6,3.5-1.6,5.8c0,2.9,2.5,5.2,5.2,5.2c6.5,0,16.4-7.2,21-11c4.1-3.5,7.9-7.2,11.2-11.5c1.4-1.4,2.7-3.2,3.8-5.2L209,35h5.5
	l-3.8,7.8c4.1-4,9.3-8.1,15.3-8.1c1.9,0,3.5,1.2,3.5,3.5c0,2-1.6,4-3.5,4c-1.1,0-2.2-0.9-2.2-2c0-1.7,1.9-3.2,3.3-3.2
	c0.3,0,0.5,0,0.8,0.3c-0.3-1.2-1.1-1.7-2.2-1.7c-3,0-5.7,1.4-8.2,2.9c-5.2,3.5-9.3,8.4-12.3,14.1l-7.9,13.5h-5.5l12.5-22.5
	c-2.7,3.5-5.5,6.6-8.7,9.5c-3.5,3.2-7.6,5.8-11.5,8.4c-4.4,2.6-9,5.2-13.9,5.2s-9.3-2.9-9.3-8.4c0-1.4,0.5-2.9,0.8-4.6
	c-4.9,4.6-12.3,12.4-19.4,12.4c-2.7,0-4.9-0.9-4.9-4c0-2,1.4-4,2.2-5.2l4.6-8.4c-4.6,4.9-9,9.5-14.5,13.5c-2.7,2.3-6.3,4-9.8,4
	c-2.5,0-4.9-1.4-4.9-4c0-2.3,1.4-4.6,2.5-6.3L129.1,35c-2.2,2-4.1,3.7-6.5,5.8c-1.9,1.4-4.1,3.5-6.5,3.5c-1.6,0-3-1.2-3-2.9
	s1.6-3.2,3.3-3.2c0.3,0,0.8,0,1.1,0.3c0.3-0.3,0.3-0.6,0.3-0.9c0-1.4-1.4-2-2.5-2c-2.7,0-5.7,1.4-7.9,2.9c-2.5,1.4-3.8,4-5.2,6.3
	L90.4,66.1h-5.7l8.2-15c-5.5,6.1-14.7,15.3-23.2,15.3c-2.2,0-4.4-1.2-4.4-4c0-1.4,0.5-3.2,1.1-4.6c-4.1,4.6-9.5,9.2-15.8,9.2
	c-3.8,0-7.4-2.9-7.4-7.5C43.2,58.1,43.5,57.2,44,55.8L44,55.8z M75.7,39.3c0-3.2-2.5-5.2-5.2-5.2c-3.3,0-6,1.7-8.4,3.7
	c-4.9,3.8-9.3,9.2-12,15.3c-1.1,2-1.9,4-1.9,6.3c0,2.9,1.6,5.5,4.6,5.5c6.5,0,13.4-7.8,17.2-12.7C72.4,48.8,75.7,43.7,75.7,39.3
	L75.7,39.3z M168.7,53.2c0.5,0,1.1,0,1.4,0c4.9,0,9.8-2.6,13.4-6.1c2.2-2.3,5.2-6.3,5.2-9.8c0-1.7-1.6-2.3-3.3-2.3
	C178.5,35,171.9,47.4,168.7,53.2z"/>
<path class="st0" d="M159.1,28.4c-1.1,0-1.9-0.6-1.9-2c0-1.7,1.6-4.3,3.5-4.3c1.4,0,1.6,1.2,1.6,2.3
	C162.4,26.4,161.3,28.4,159.1,28.4z"/>
</svg>
